<?xml version="1.0" standalone="no"?><svg xmlns="http://www.w3.org/2000/svg" viewBox="0 0 1440 320"><path fill="#D8CBFF" fill-opacity="1" d="M0,256L30,218.7C60,181,120,107,180,112C240,117,300,203,360,224C420,245,480,203,540,170.7C600,139,660,117,720,101.3C780,85,840,75,900,101.3C960,128,1020,192,1080,186.7C1140,181,1200,107,1260,64C1320,21,1380,11,1410,5.3L1440,0L1440,320L1410,320C1380,320,1320,320,1260,320C1200,320,1140,320,1080,320C1020,320,960,320,900,320C840,320,780,320,720,320C660,320,600,320,540,320C480,320,420,320,360,320C300,320,240,320,180,320C120,320,60,320,30,320L0,320Z"></path></svg>